<svg xmlns="http://www.w3.org/2000/svg" viewBox="0 0 50.64 22.75">
  <path d="M.26 6.94a3.71 3.71 0 001.87.53c1.07 0 1.7-.56 1.7-1.38s-.44-1.18-1.53-1.6C1 4 .17 3.33.17 2.19A2.33 2.33 0 012.78 0a3.6 3.6 0 011.79.4l-.29.85A3.11 3.11 0 002.75.86c-1.11 0-1.53.66-1.53 1.21 0 .76.49 1.13 1.61 1.56C4.2 4.16 4.89 4.82 4.89 6S4 8.34 2.06 8.34A4.13 4.13 0 010 7.82zM10.51 4.43H7.37v2.91h3.5v.88H6.32V.13h4.37V1H7.37v2.56h3.14zM12.23.24a10.58 10.58 0 012-.17 3.32 3.32 0 012.34.66 2 2 0 01.63 1.54 2.13 2.13 0 01-1.52 2.06A2 2 0 0116.87 6a12.89 12.89 0 00.62 2.22h-1.08a11 11 0 01-.54-1.94c-.24-1.11-.67-1.53-1.62-1.57h-1v3.51h-1zm1 3.68h1.07c1.11 0 1.82-.61 1.82-1.53S15.41.89 14.3.88a4.3 4.3 0 00-1 .09zM20.65 8.22L18 .13h1.13l1.26 4c.35 1.1.65 2.08.86 3 .22-.94.56-2 .92-3l1.37-4h1.11L21.8 8.22zM29.76 4.43h-3.15v2.91h3.51v.88h-4.55V.13h4.37V1h-3.33v2.56h3.15zM31.48.24a10.58 10.58 0 012-.17 3.36 3.36 0 012.34.66 2 2 0 01.63 1.54 2.13 2.13 0 01-1.52 2.06A2 2 0 0136.12 6a12.89 12.89 0 00.62 2.22h-1.08a11 11 0 01-.54-1.94c-.24-1.11-.67-1.53-1.62-1.57h-1v3.51h-1zm1 3.68h1.07c1.11 0 1.82-.61 1.82-1.53S34.65.89 33.55.88a4.3 4.3 0 00-1 .09zM4.59 18.83H1.45v2.91H5v.88H.41v-8.09h4.36v.88H1.45V18h3.14zM10.74 22.62l-1-1.79c-.42-.69-.69-1.13-.94-1.6-.23.47-.46.9-.88 1.61l-1 1.78H5.7l2.47-4.09-2.37-4H7l1.06 1.9c.3.52.53.93.75 1.36.23-.48.44-.85.74-1.36l1.1-1.9h1.2l-2.42 3.94L12 22.62zM13.16 14.63a11.55 11.55 0 012-.16 3.31 3.31 0 012.26.67 2.16 2.16 0 01.71 1.69 2.4 2.4 0 01-.62 1.73 3.34 3.34 0 01-2.47.89 3.56 3.56 0 01-.84-.07v3.24h-1.04zm1.05 3.9a3.44 3.44 0 00.86.08c1.26 0 2-.61 2-1.73s-.76-1.58-1.91-1.58a4.93 4.93 0 00-1 .08zM19.55 14.53h1v7.21H24v.88h-4.45zM31.65 18.49c0 2.78-1.69 4.26-3.75 4.26s-3.64-1.66-3.64-4.1 1.6-4.25 3.74-4.25 3.65 1.69 3.65 4.09zm-6.27.13c0 1.73.93 3.28 2.58 3.28s2.59-1.53 2.59-3.36c0-1.61-.84-3.29-2.58-3.29s-2.59 1.6-2.59 3.37zM33 14.64a10.66 10.66 0 012-.17 3.32 3.32 0 012.34.66 2 2 0 01.66 1.54 2.13 2.13 0 01-1.52 2.06 2 2 0 011.18 1.63 13.58 13.58 0 00.63 2.22H37.2a9.41 9.41 0 01-.54-1.94c-.24-1.11-.67-1.53-1.62-1.57h-1v3.51H33zm1 3.68h1.07c1.12 0 1.82-.61 1.82-1.53s-.75-1.5-1.85-1.51a4.34 4.34 0 00-1 .09zM43.65 18.83h-3.14v2.91H44v.88h-4.53v-8.09h4.36v.88h-3.32V18h3.14zM45.37 14.64a10.66 10.66 0 012-.17 3.32 3.32 0 012.34.66 2 2 0 01.64 1.54 2.13 2.13 0 01-1.52 2.06A2 2 0 0150 20.4a13.58 13.58 0 00.63 2.22h-1.07a9.41 9.41 0 01-.56-1.94c-.24-1.11-.67-1.53-1.62-1.57h-1v3.51h-1zm1 3.68h1.07c1.12 0 1.82-.61 1.82-1.53s-.75-1.5-1.85-1.51a4.34 4.34 0 00-1 .09z"/>
</svg>