<?xml version="1.0" standalone="no"?>
<!DOCTYPE svg PUBLIC "-//W3C//DTD SVG 20010904//EN"
 "http://www.w3.org/TR/2001/REC-SVG-20010904/DTD/svg10.dtd">
<svg version="1.0" xmlns="http://www.w3.org/2000/svg"
 width="700.000000pt" height="700.000000pt" viewBox="0 0 700.000000 700.000000"
 preserveAspectRatio="xMidYMid meet">
<metadata>
Created by potrace 1.11, written by Peter Selinger 2001-2013
</metadata>
<g transform="translate(0.000000,700.000000) scale(0.100000,-0.100000)"
fill="#000000" stroke="none">
<path d="M3230 6989 c-703 -57 -1372 -321 -1915 -756 -141 -112 -371 -337
-490 -478 -214 -254 -391 -537 -523 -835 -423 -960 -399 -2046 68 -2981 180
-359 371 -622 669 -919 396 -394 843 -670 1361 -840 375 -124 694 -174 1100
-174 258 0 353 7 580 45 983 162 1855 747 2392 1604 89 141 214 389 277 547
483 1216 253 2595 -600 3583 -96 112 -306 318 -419 412 -687 572 -1610 864
-2500 792z m-564 -1769 c220 -18 524 -69 699 -118 l30 -8 3 -287 c1 -187 -1
-287 -8 -287 -5 0 -47 15 -92 34 -295 121 -638 183 -876 156 -127 -14 -215
-40 -271 -80 -112 -82 -123 -284 -20 -363 72 -55 158 -81 487 -147 263 -53
421 -99 546 -159 175 -85 269 -172 337 -316 51 -108 69 -203 69 -372 0 -383
-143 -630 -444 -768 -361 -166 -1009 -146 -1581 48 l-100 34 -3 296 c-1 164
-1 297 1 297 2 0 60 -26 128 -59 228 -107 442 -175 635 -201 135 -18 393 -9
465 18 157 56 218 131 219 265 0 142 -66 215 -250 276 -36 11 -173 45 -305 75
-350 79 -463 119 -608 212 -107 70 -180 151 -232 258 -55 114 -75 211 -75 363
0 281 96 496 282 638 127 96 289 160 468 184 47 6 96 13 110 15 56 8 265 5
386 -4z m3434 -305 l0 -265 -600 0 -600 0 0 -255 0 -255 563 -2 562 -3 0 -265
0 -265 -562 -3 -563 -2 0 -310 0 -310 620 0 620 0 0 -265 0 -265 -975 0 -975
0 0 1365 0 1365 955 0 955 0 0 -265z"/>
</g>
</svg>
